<svg width="800" height="200" viewBox="0 0 800 200" fill="none" xmlns="http://www.w3.org/2000/svg">
  <!-- Letter C with cardinal bird -->
  <path d="M100 40C55.8172 40 20 75.8172 20 120C20 164.183 55.8172 200 100 200C122.091 200 142.217 191.571 157.071 177.678" stroke="#000000" stroke-width="16" stroke-linecap="round" fill="none"/>
  
  <!-- Cardinal bird integrated into C -->
  <path d="M40 60L35 50L30 55L25 45L20 50L15 40L10 45L5 35L0 40V60L5 65L10 70L15 65L20 70L25 65L30 70L35 65L40 60Z" fill="#B91C1C" transform="translate(80, 30) rotate(25)"/>
  <path d="M40 60L45 55L50 60L55 55L60 60L65 55L70 60V40L65 35L60 30L55 35L50 30L45 35L40 30L35 35L30 30L25 35L20 30L15 35L10 30L5 35L0 30V50L5 55L10 60L15 55L20 60L25 55L30 60L35 55L40 60Z" fill="#DC2626" transform="translate(80, 30) rotate(25)"/>
  <circle cx="95" cy="55" r="3" fill="#000000"/>
  
  <!-- Text: ARDINAL CONSEILS -->
  <text x="180" y="130" font-family="Arial, sans-serif" font-size="72" font-weight="400" fill="#000000">ARDINAL CONSEILS</text>
</svg>
